<svg
        width="18"
        height="21"
        viewBox="0 0 18 21"
        fill="none"
        xmlns="http://www.w3.org/2000/svg">
    <path
            d="M0.5 6.11816H14C14.2761 6.11816 14.5 6.34202 14.5 6.61816V19.6182C14.5 19.8943 14.2761 20.1182 14 20.1182H1C0.723858 20.1182 0.5 19.8943 0.5 19.6182V6.11816Z"
            stroke="white"/>
    <path
            d="M0.5 5.64254C0.5 5.50836 0.575148 5.38548 0.694596 5.32434L8.77219 1.19009C9.1049 1.01981 9.5 1.26144 9.5 1.63518V5.5C9.5 5.77614 9.27614 6 9 6H0.857457C0.660039 6 0.5 5.83996 0.5 5.64254Z"
            fill="white"
            stroke="white"/>
    <rect
            x="10.5"
            y="10.1182"
            width="7"
            height="5"
            rx="0.5"
            stroke="white"/>
    <circle
            cx="13"
            cy="12.6182"
            r="1"
            fill="white"/>
</svg>
