<svg width="12" height="12" viewBox="0 0 12 12" fill="none" xmlns="http://www.w3.org/2000/svg">
<rect width="12" height="12" rx="4" fill="#0719FF"/>
<g clip-path="url(#clip0_359_1239)">
<path d="M5.61881 2.077C5.73743 2.02638 5.86703 2.00012 5.99827 2.00012C6.1295 2.00012 6.2591 2.02638 6.37772 2.077L8.57545 3.1195C8.63117 3.14201 8.67983 3.17663 8.71708 3.22026C8.75433 3.26389 8.77901 3.31516 8.78891 3.3695V8.61075C8.7837 8.66951 8.7609 8.72589 8.72294 8.77388C8.68498 8.82187 8.63328 8.85967 8.57337 8.88325L6.37495 9.92325C6.25633 9.97387 6.12673 10.0001 5.99549 10.0001C5.86426 10.0001 5.73466 9.97387 5.61604 9.92325L3.41554 8.88075C3.35618 8.85693 3.30514 8.81897 3.2679 8.77096C3.23066 8.72295 3.20862 8.6667 3.20416 8.60825C3.20416 8.59825 3.20416 8.5895 3.20416 8.58262V3.367C3.21223 3.31277 3.23558 3.26132 3.27198 3.21755C3.30838 3.17379 3.35661 3.13917 3.41208 3.117L5.61881 2.077ZM8.44515 6.29137L6.37495 7.272C6.25633 7.32262 6.12673 7.34887 5.99549 7.34887C5.86426 7.34887 5.73466 7.32262 5.61604 7.272L3.55069 6.29325V8.59762L5.61881 9.57137C5.7265 9.63119 5.8465 9.67074 5.97158 9.68762H5.99515C6.11851 9.68762 6.23842 9.632 6.3597 9.57825L8.44515 8.58762V6.29137ZM2.84653 8.4945C2.84653 8.69512 2.87218 8.827 2.92416 8.92012C2.97693 9.0054 3.05428 9.07623 3.14802 9.12512L3.15495 9.12887C3.18059 9.1445 3.20901 9.16075 3.24366 9.18012L3.28455 9.20262L3.40931 9.27012L3.2298 9.53575L3.09119 9.46012L3.06832 9.44762C3.02743 9.42512 2.99416 9.40575 2.96297 9.38512C2.62683 9.18762 2.5 8.96637 2.5 8.50825V8.4945H2.84653ZM5.82188 4.88637C5.80671 4.89112 5.79189 4.89676 5.77752 4.90325L3.57703 5.94637H3.57079H3.57426H3.57911L5.77752 7.00012C5.79173 7.00708 5.80657 7.01293 5.82188 7.01762V4.88637ZM6.16842 4.88637V7.0145C6.18395 7.00981 6.19902 7.00395 6.21347 6.997L8.41327 5.9545L8.4202 5.95137H8.41535L6.21347 4.90325C6.19886 4.89676 6.18382 4.89113 6.16842 4.88637ZM8.44515 3.73887L6.47129 4.67637L8.44515 5.61387V3.73887ZM3.55069 3.73887V5.60762L5.5197 4.6745L3.55069 3.73887ZM6.21347 2.35137C6.14466 2.32449 6.07048 2.31062 5.99549 2.31062C5.92051 2.31062 5.84633 2.32449 5.77752 2.35137L3.57703 3.39387L3.57079 3.39762H3.57426H3.57911L5.77752 4.44512C5.84633 4.47201 5.92051 4.48588 5.99549 4.48588C6.07048 4.48588 6.14466 4.47201 6.21347 4.44512L8.41327 3.40262L8.4202 3.3995H8.41535L6.21347 2.35137ZM8.7702 2.46575L8.90881 2.54137L8.93168 2.5545C8.97257 2.577 9.00584 2.59637 9.03703 2.617C9.37178 2.8195 9.49584 3.0395 9.49861 3.49825V3.512H9.15346C9.15346 3.31137 9.12782 3.1795 9.07584 3.08637C9.02428 2.99867 8.9468 2.92555 8.85198 2.87512L8.84505 2.87075C8.81941 2.85512 8.79099 2.83887 8.75634 2.82012L8.71545 2.79762L8.59069 2.73012L8.7702 2.46575Z" fill="white"/>
</g>
<defs>
<clipPath id="clip0_359_1239">
<rect width="7" height="8" fill="white" transform="translate(2.5 2.00012)"/>
</clipPath>
</defs>
</svg>
