<svg width="12" height="12" viewBox="0 0 12 12" fill="none" xmlns="http://www.w3.org/2000/svg">
<rect width="12" height="12" rx="4" fill="#FF0420"/>
<path fill-rule="evenodd" clip-rule="evenodd" d="M2.4386 7.68886C2.73489 7.89629 3.11499 8 3.57891 8C4.14032 8 4.58868 7.8759 4.92394 7.62775C5.25921 7.37591 5.49507 6.99629 5.63155 6.48883C5.71341 6.17775 5.78359 5.85738 5.84208 5.52777C5.86157 5.40922 5.87135 5.31106 5.87135 5.23329C5.87135 4.97403 5.80308 4.75182 5.66661 4.56666C5.53019 4.37775 5.34303 4.237 5.10525 4.14439C4.86742 4.04815 4.5984 4 4.29826 4C3.19493 4 2.51071 4.50922 2.24562 5.52777C2.15206 5.90184 2.07994 6.22221 2.02923 6.48883C2.00976 6.60738 2 6.70741 2 6.78887C2 7.17777 2.1462 7.47776 2.4386 7.68886ZM4.21634 7.01663C4.0643 7.13886 3.87916 7.19998 3.66077 7.19998C3.28657 7.19998 3.09941 7.0296 3.09941 6.68884C3.09941 6.60738 3.10719 6.52961 3.12281 6.45552C3.19297 6.09629 3.26314 5.79258 3.33332 5.54442C3.39962 5.29259 3.50879 5.10555 3.66077 4.98327C3.81674 4.86109 4.00384 4.79997 4.22224 4.79997C4.59256 4.79997 4.77775 4.96848 4.77775 5.30551C4.77775 5.38701 4.76994 5.46665 4.75437 5.54442C4.70757 5.80368 4.63936 6.1074 4.54969 6.45552C4.48339 6.70741 4.37231 6.89445 4.21634 7.01663ZM6.04097 7.90537C6.06435 7.93131 6.0975 7.94428 6.14042 7.94428H6.93573C6.97467 7.94428 7.01175 7.93131 7.04681 7.90537C7.08187 7.87943 7.10334 7.84612 7.11114 7.80539L7.38016 6.58871H8.16963C8.68031 6.58871 9.08187 6.48687 9.37431 6.28318C9.67058 6.07949 9.86746 5.76467 9.96489 5.33872C9.98831 5.23874 10 5.1424 10 5.04984C10 4.7276 9.86746 4.48131 9.60232 4.31093C9.34111 4.14055 8.99416 4.05536 8.56142 4.05536H7.00585C6.96691 4.05536 6.92989 4.06833 6.89477 4.09427C6.85966 4.12021 6.83825 4.15352 6.83044 4.19425L6.02344 7.80539C6.01563 7.84244 6.02148 7.87575 6.04097 7.90537ZM8.63744 5.69426C8.51658 5.77945 8.37426 5.82205 8.21054 5.82205H7.53805L7.76026 4.82763H8.46202C8.62187 4.82763 8.73492 4.8572 8.80116 4.9165C8.86746 4.97207 8.90061 5.05352 8.90061 5.16092C8.90061 5.20906 8.89477 5.26463 8.88308 5.32761C8.84409 5.48689 8.76217 5.60907 8.63744 5.69426Z" fill="white"/>
</svg>
