<svg width="12" height="12" viewBox="0 0 12 12" fill="none" xmlns="http://www.w3.org/2000/svg">
<rect width="12" height="12" rx="4" fill="black"/>
<g clip-path="url(#clip0_359_1234)">
<path d="M9.95831 7.97783L8.63765 9.33498C8.60921 9.36507 8.57474 9.38936 8.53629 9.4064C8.49765 9.42224 8.45608 9.4305 8.41406 9.43069H2.15358C2.12365 9.43056 2.0944 9.42212 2.06936 9.4064C2.04446 9.39091 2.02479 9.36883 2.01272 9.34284C2.00056 9.31662 1.99693 9.28749 2.00228 9.25926C2.00746 9.23102 2.0209 9.20476 2.04104 9.18355L3.36021 7.8264C3.38865 7.79631 3.42312 7.77202 3.46157 7.75498C3.50021 7.73914 3.54177 7.73088 3.5838 7.73069H9.84428C9.87436 7.72992 9.90398 7.73789 9.92924 7.75355C9.9546 7.76925 9.97477 7.79154 9.98738 7.81783C9.99937 7.84435 10.003 7.87365 9.99781 7.90212C9.99293 7.9306 9.97916 7.957 9.95831 7.97783ZM8.63765 5.24427C8.60933 5.21373 8.57451 5.18938 8.53554 5.17284C8.49733 5.15642 8.45593 5.1479 8.41406 5.14783H2.15358C2.12365 5.14797 2.0944 5.1564 2.06936 5.17212C2.04441 5.18787 2.02474 5.2102 2.01272 5.23641C2.00056 5.26263 1.99693 5.29175 2.00228 5.31998C2.00748 5.34801 2.02092 5.37403 2.04104 5.39498L3.36021 6.75212C3.38865 6.78222 3.42312 6.80651 3.46157 6.82355C3.50021 6.83939 3.54177 6.84765 3.5838 6.84784H9.84428C9.87401 6.8479 9.90308 6.83944 9.92775 6.82355C9.95294 6.80806 9.97268 6.78565 9.9844 6.75926C9.9964 6.73325 10 6.70441 9.99483 6.67641C9.98981 6.64811 9.97635 6.62181 9.95607 6.60069L8.63765 5.24427ZM2.15358 4.26926H8.41406C8.45608 4.26908 8.49765 4.26082 8.53629 4.24498C8.57474 4.22794 8.60921 4.20365 8.63765 4.17355L9.95831 2.81641C9.97916 2.79558 9.99293 2.76918 9.99781 2.7407C10.003 2.71223 9.99937 2.68292 9.98738 2.65641C9.97477 2.63012 9.9546 2.60782 9.92924 2.59212C9.90398 2.57646 9.87436 2.56849 9.84428 2.56927H3.5838C3.54177 2.56945 3.50021 2.57771 3.46157 2.59355C3.42312 2.61059 3.38865 2.63489 3.36021 2.66498L2.04104 4.02212C2.0209 4.04334 2.00746 4.06959 2.00228 4.09784C1.99693 4.12607 2.00056 4.15519 2.01272 4.18141C2.02479 4.2074 2.04446 4.22948 2.06936 4.24498C2.0944 4.2607 2.12365 4.26913 2.15358 4.26926Z" fill="url(#paint0_linear_359_1234)"/>
</g>
<defs>
<linearGradient id="paint0_linear_359_1234" x1="2.67529" y1="9.59212" x2="8.92934" y2="2.2353" gradientUnits="userSpaceOnUse">
<stop offset="0.08" stop-color="#9945FF"/>
<stop offset="0.3" stop-color="#8752F3"/>
<stop offset="0.5" stop-color="#5497D5"/>
<stop offset="0.6" stop-color="#43B4CA"/>
<stop offset="0.72" stop-color="#28E0B9"/>
<stop offset="0.97" stop-color="#19FB9B"/>
</linearGradient>
<clipPath id="clip0_359_1234">
<rect width="8" height="6.85714" fill="white" transform="translate(2 2.57141)"/>
</clipPath>
</defs>
</svg>
